#!OML:ASF I:\Actors\actors\Patient Classification 1\Patient 1\Session 1\Subject1.ASF
:FULLY-SPECIFIED
:DEGREES
1360
root -0.169903 17.7321 9.64154 17.3362 18.5678 -11.6747
lowerback 11.4492 0.847228 4.76676
upperback -11.6337 1.69402 -3.29447
thorax -19.914 -0.278973 -7.09718
lowerneck -15.7944 -0.893157 -3.3305
upperneck 19.793 -2.96709 11.7023
head 9.05827 -0.36259 4.22339
rclavicle -2.13694e-014 -2.38542e-014
rhumerus -0.765348 -1.59964 1.23887
rradius 35.2857
rwrist 8.20367
rhand 40.6009 -22.5962
rfingers 7.12502
rthumb 62.8914 -32.9342
lclavicle -2.13694e-014 -2.38542e-014
lhumerus 0.812309 13.0858 1.90276
lradius 41.1802
lwrist 12.6166
lhand 2.34368 -11.4338
lfingers 7.12502
lthumb 27.8332 16.5246
rfemur -6.05037 28.9597 28.609
rtibia -1.98551
rfoot -25.3424 -41.2374
rtoes 20.5286
lfemur -14.188 -60.1111 12.1171
ltibia -5.74121
lfoot -27.8878 59.419
ltoes 10.4743
1361
root -0.174686 17.7328 9.63662 17.3137 19.2328 -11.8218
lowerback 11.6059 0.916212 4.71322
upperback -11.6242 1.78882 -3.29011
thorax -19.9942 -0.232255 -7.09665
lowerneck -15.7842 -1.04436 -3.52542
upperneck 19.4189 -3.2102 12.2351
head 8.96384 -0.444728 4.40295
rclavicle 1.59028e-015 -3.02153e-014
rhumerus -0.409079 -2.06058 1.16539
rradius 35.2207
rwrist 8.45892
rhand 40.8411 -22.6657
rfingers 7.12502
rthumb 63.0887 -32.7347
lclavicle 1.59028e-015 -3.02153e-014
lhumerus 1.12747 13.2063 1.98949
lradius 41.1359
lwrist 12.5289
lhand 2.51283 -11.5933
lfingers 7.12502
lthumb 27.9949 16.3389
rfemur -6.10191 28.9318 28.8338
rtibia -2.03038
rfoot -25.7399 -41.6147
rtoes 20.8896
lfemur -15.3154 -60.4761 13.3654
ltibia -5.58678
lfoot -26.7923 59.6828
ltoes 9.26909
1362
root -0.177903 17.7323 9.63476 17.3457 19.8463 -11.8669
lowerback 11.7125 1.00667 4.53041
upperback -11.6206 1.87798 -3.32008
thorax -20.0487 -0.171616 -7.05968
lowerneck -15.7832 -1.18673 -3.61045
upperneck 19.0601 -3.44452 12.6645
head 8.87466 -0.525558 4.5287
rclavicle -2.82274e-014 8.42847e-014
rhumerus -0.114139 -2.35728 1.08414
rradius 35.1416
rwrist 8.56878
rhand 40.8994 -22.8861
rfingers 7.12502
rthumb 63.1365 -32.8892
lclavicle -2.82274e-014 8.42847e-014
lhumerus 1.49055 13.4821 2.12041
lradius 41.0577
lwrist 12.5938
lhand 2.55274 -11.7964
lfingers 7.12502
lthumb 28.0331 16.1295
rfemur -6.14185 28.9517 28.927
rtibia -2.13875
rfoot -26.1411 -42.0537
rtoes 21.2437
lfemur -16.3192 -60.8321 14.4061
ltibia -5.51818
lfoot -25.7481 59.9424
ltoes 8.23048
1363
root -0.179729 17.7303 9.63356 17.3828 20.4506 -11.894
lowerback 11.8159 1.09968 4.31429
upperback -11.6155 1.96484 -3.33801
thorax -20.1005 -0.105517 -6.98846
lowerneck -15.8576 -1.34719 -3.61187
upperneck 18.8086 -3.68813 12.879
head 8.83228 -0.622193 4.56716
rclavicle -1.59028e-014 5.08889e-014
rhumerus 0.25848 -2.67394 0.990965
rradius 34.9356
rwrist 8.88979
rhand 40.9555 -23.0447
rfingers 7.12502
rthumb 63.1824 -32.9842
lclavicle -1.59028e-014 5.08889e-014
lhumerus 1.84179 13.7992 2.29163
lradius 40.9856
lwrist 12.7201
lhand 2.6223 -11.7806
lfingers 7.12502
lthumb 28.0996 16.1344
rfemur -6.16473 28.9866 29.0034
rtibia -2.24609
rfoot -26.6342 -42.489
rtoes 21.7245
lfemur -17.2925 -61.1886 15.4027
ltibia -5.47549
lfoot -25.2137 60.102
ltoes 7.78046
1364
root -0.180331 17.7283 9.63146 17.3534 21.0577 -11.9695
lowerback 11.9766 1.16068 4.15451
upperback -11.578 2.02434 -3.32693
thorax -20.1537 -0.0564559 -6.90846
lowerneck -15.9613 -1.4974 -3.73233
upperneck 18.5222 -3.90638 13.2048
head 8.78632 -0.704744 4.66759
rclavicle 3.06128e-014 -6.36111e-015
rhumerus 0.678485 -3.10672 0.867928
rradius 34.7321
rwrist 9.5484
rhand 41.0008 -23.0981
rfingers 7.12502
rthumb 63.2195 -32.986
lclavicle 3.06128e-014 -6.36111e-015
lhumerus 2.10926 14.2003 2.43956
lradius 40.8911
lwrist 12.5683
lhand 2.48335 -11.8611
lfingers 7.12502
lthumb 27.9668 16.0757
rfemur -6.14943 28.8732 29.1641
rtibia -2.30223
rfoot -27.0996 -42.7441
rtoes 22.1668
lfemur -18.157 -61.569 16.345
ltibia -5.4187
lfoot -24.8804 60.2072
ltoes 7.34462
